HIERARCHY
ROOT Hips
{
    OFFSET 0.000000 0.000000 0.000000
    CHANNELS 6 Xposition Yposition Zposition Zrotation Xrotation Yrotation
    JOINT Spine
    {
        OFFSET -0.000000 7.284621 0.000000
        CHANNELS 3 Zrotation Xrotation Yrotation
        JOINT Spine1
        {
            OFFSET -0.000000 19.968920 0.000000
            CHANNELS 3 Zrotation Xrotation Yrotation
            JOINT Neck
            {
                OFFSET -0.000000 21.745657 0.000000
                CHANNELS 3 Zrotation Xrotation Yrotation
                JOINT Head
                {
                    OFFSET -0.000000 13.769711 1.776737
                    CHANNELS 3 Zrotation Xrotation Yrotation
                    End Site
                    {
                        OFFSET -0.000000 17.767368 0.000000
                    }
                }
            }
            JOINT LeftShoulder
            {
                OFFSET 3.594505 17.711157 -0.013107
                CHANNELS 3 Zrotation Xrotation Yrotation
                JOINT LeftArm
                {
                    OFFSET 12.210003 0.000000 0.000000
                    CHANNELS 3 Zrotation Xrotation Yrotation
                    JOINT LeftForeArm
                    {
                        OFFSET 24.535166 0.000000 0.000000
                        CHANNELS 3 Zrotation Xrotation Yrotation
                        JOINT LeftHand
                        {
                            OFFSET 20.235195 0.000000 0.000000
                            CHANNELS 3 Zrotation Xrotation Yrotation
                            JOINT LeftHandThumb1
                            {
                                OFFSET 1.906737 -2.166747 3.033446
                                CHANNELS 3 Zrotation Xrotation Yrotation
                                JOINT LeftHandThumb2
                                {
                                    OFFSET 2.043247 0.000000 1.332553
                                    CHANNELS 3 Zrotation Xrotation Yrotation
                                    JOINT LeftHandThumb3
                                    {
                                        OFFSET 2.665105 0.000000 0.000000
                                        CHANNELS 3 Zrotation Xrotation Yrotation
                                        End Site
                                        {
                                            OFFSET 2.367595 0.000000 0.000000
                                        }
                                    }
                                }
                            }
                            JOINT LeftHandIndex1
                            {
                                OFFSET 7.800290 0.000000 3.033446
                                CHANNELS 3 Zrotation Xrotation Yrotation
                                JOINT LeftHandIndex2
                                {
                                    OFFSET 4.441842 0.000000 0.000000
                                    CHANNELS 3 Zrotation Xrotation Yrotation
                                    JOINT LeftHandIndex3
                                    {
                                        OFFSET 2.220921 0.000000 0.000000
                                        CHANNELS 3 Zrotation Xrotation Yrotation
                                        End Site
                                        {
                                            OFFSET 1.972996 0.000000 0.000000
                                        }
                                    }
                                }
                            }
                            JOINT LeftHandMiddle1
                            {
                                OFFSET 7.800290 0.000000 1.005371
                                CHANNELS 3 Zrotation Xrotation Yrotation
                                JOINT LeftHandMiddle2
                                {
                                    OFFSET 4.886026 0.000000 0.000000
                                    CHANNELS 3 Zrotation Xrotation Yrotation
                                    JOINT LeftHandMiddle3
                                    {
                                        OFFSET 2.665105 0.000000 0.000000
                                        CHANNELS 3 Zrotation Xrotation Yrotation
                                        End Site
                                        {
                                            OFFSET 2.367595 0.000000 0.000000
                                        }
                                    }
                                }
                            }
                            JOINT LeftHandRing1
                            {
                                OFFSET 7.366940 0.000000 -1.005371
                                CHANNELS 3 Zrotation Xrotation Yrotation
                                JOINT LeftHandRing2
                                {
                                    OFFSET 4.441842 0.000000 0.000000
                                    CHANNELS 3 Zrotation Xrotation Yrotation
                                    JOINT LeftHandRing3
                                    {
                                        OFFSET 2.220921 0.000000 0.000000
                                        CHANNELS 3 Zrotation Xrotation Yrotation
                                        End Site
                                        {
                                            OFFSET 1.972996 0.000000 0.000000
                                        }
                                    }
                                }
                            }
                            JOINT LeftHandPinky1
                            {
                                OFFSET 6.933591 0.000000 -3.033446
                                CHANNELS 3 Zrotation Xrotation Yrotation
                                JOINT LeftHandPinky2
                                {
                                    OFFSET 3.553473 0.000000 0.000000
                                    CHANNELS 3 Zrotation Xrotation Yrotation
                                    JOINT LeftHandPinky3
                                    {
                                        OFFSET 1.776737 0.000000 0.000000
                                        CHANNELS 3 Zrotation Xrotation Yrotation
                                        End Site
                                        {
                                            OFFSET 1.578397 0.000000 0.000000
                                        }
                                    }
                                }
                            }
                        }
                    }
                }
            }
            JOINT RightShoulder
            {
                OFFSET -3.500468 17.711157 -0.013107
                CHANNELS 3 Zrotation Xrotation Yrotation
                JOINT RightArm
                {
                    OFFSET -12.210003 0.000000 0.000000
                    CHANNELS 3 Zrotation Xrotation Yrotation
                    JOINT RightForeArm
                    {
                        OFFSET -24.535166 0.000000 0.000000
                        CHANNELS 3 Zrotation Xrotation Yrotation
                        JOINT RightHand
                        {
                            OFFSET -20.235195 0.000000 0.000000
                            CHANNELS 3 Zrotation Xrotation Yrotation
                            JOINT RightHandThumb1
                            {
                                OFFSET -1.906737 -2.166747 3.033446
                                CHANNELS 3 Zrotation Xrotation Yrotation
                                JOINT RightHandThumb2
                                {
                                    OFFSET -2.043247 0.000000 1.332553
                                    CHANNELS 3 Zrotation Xrotation Yrotation
                                    JOINT RightHandThumb3
                                    {
                                        OFFSET -2.665105 0.000000 0.000000
                                        CHANNELS 3 Zrotation Xrotation Yrotation
                                        End Site
                                        {
                                            OFFSET -2.367595 0.000000 0.000000
                                        }
                                    }
                                }
                            }
                            JOINT RightHandIndex1
                            {
                                OFFSET -7.800290 0.000000 3.033446
                                CHANNELS 3 Zrotation Xrotation Yrotation
                                JOINT RightHandIndex2
                                {
                                    OFFSET -4.441842 0.000000 0.000000
                                    CHANNELS 3 Zrotation Xrotation Yrotation
                                    JOINT RightHandIndex3
                                    {
                                        OFFSET -2.220921 0.000000 0.000000
                                        CHANNELS 3 Zrotation Xrotation Yrotation
                                        End Site
                                        {
                                            OFFSET -1.972996 0.000000 0.000000
                                        }
                                    }
                                }
                            }
                            JOINT RightHandMiddle1
                            {
                                OFFSET -7.800290 0.000000 1.005371
                                CHANNELS 3 Zrotation Xrotation Yrotation
                                JOINT RightHandMiddle2
                                {
                                    OFFSET -4.886026 0.000000 0.000000
                                    CHANNELS 3 Zrotation Xrotation Yrotation
                                    JOINT RightHandMiddle3
                                    {
                                        OFFSET -2.665105 0.000000 0.000000
                                        CHANNELS 3 Zrotation Xrotation Yrotation
                                        End Site
                                        {
                                            OFFSET -2.367595 0.000000 0.000000
                                        }
                                    }
                                }
                            }
                            JOINT RightHandRing1
                            {
                                OFFSET -7.366940 0.000000 -1.005371
                                CHANNELS 3 Zrotation Xrotation Yrotation
                                JOINT RightHandRing2
                                {
                                    OFFSET -4.441842 0.000000 0.000000
                                    CHANNELS 3 Zrotation Xrotation Yrotation
                                    JOINT RightHandRing3
                                    {
                                        OFFSET -2.220921 0.000000 0.000000
                                        CHANNELS 3 Zrotation Xrotation Yrotation
                                        End Site
                                        {
                                            OFFSET -1.972996 0.000000 0.000000
                                        }
                                    }
                                }
                            }
                            JOINT RightHandPinky1
                            {
                                OFFSET -6.933591 0.000000 -3.033446
                                CHANNELS 3 Zrotation Xrotation Yrotation
                                JOINT RightHandPinky2
                                {
                                    OFFSET -3.553473 0.000000 0.000000
                                    CHANNELS 3 Zrotation Xrotation Yrotation
                                    JOINT RightHandPinky3
                                    {
                                        OFFSET -1.776737 0.000000 0.000000
                                        CHANNELS 3 Zrotation Xrotation Yrotation
                                        End Site
                                        {
                                            OFFSET -1.578397 0.000000 0.000000
                                        }
                                    }
                                }
                            }
                        }
                    }
                }
            }
        }
    }
    JOINT LeftUpLeg
    {
        OFFSET 8.883684 0.000000 0.000000
        CHANNELS 3 Zrotation Xrotation Yrotation
        JOINT LeftLeg
        {
            OFFSET -0.000000 -38.184189 0.000000
            CHANNELS 3 Zrotation Xrotation Yrotation
            JOINT LeftFoot
            {
                OFFSET -0.000000 -35.840691 0.000000
                CHANNELS 3 Zrotation Xrotation Yrotation
                JOINT LeftToeBase
                {
                    OFFSET -0.000000 -5.774395 13.325527
                    CHANNELS 3 Zrotation Xrotation Yrotation
                    End Site
                    {
                        OFFSET -0.000000 0.000000 3.553473
                    }
                }
            }
        }
    }
    JOINT RightUpLeg
    {
        OFFSET -8.883684 0.000000 0.000000
        CHANNELS 3 Zrotation Xrotation Yrotation
        JOINT RightLeg
        {
            OFFSET -0.000000 -38.184189 0.000000
            CHANNELS 3 Zrotation Xrotation Yrotation
            JOINT RightFoot
            {
                OFFSET -0.000000 -35.840691 0.000000
                CHANNELS 3 Zrotation Xrotation Yrotation
                JOINT RightToeBase
                {
                    OFFSET -0.000000 -5.774395 13.325527
                    CHANNELS 3 Zrotation Xrotation Yrotation
                    End Site
                    {
                        OFFSET -0.000000 0.000000 3.553473
                    }
                }
            }
        }
    }
}
MOTION
Frames:    4
Frame Time:    0.008333
1.017066    74.099915    122.337746    0.193565    -0.660242    -8.807680    -7.102426    0.969416    -4.730706    6.807499    9.157763    -2.136591    24.497974    -24.845575    2.165249    -12.686628    18.488054    3.463886    20.747791    -3.414135    -25.502918    -29.428698    76.151543    -63.548153    26.350958    43.044807    -25.566597    7.615375    -31.731829    -34.329708    -3.472286    8.264295    9.538589    -0.000000    0.000000    10.079275    -0.000000    0.000000    20.158550    34.537170    -3.658082    -5.296403    0.000000    0.000000    0.000000    0.000000    0.000000    0.000000    19.016409    -1.900061    -2.469496    -8.363100    0.000000    0.000000    -4.181551    0.000000    0.000000    3.438330    -0.963431    0.722986    -16.726200    0.000000    0.000000    -8.363103    0.000000    0.000000    -12.637599    -0.932053    4.149496    -25.342733    0.000000    0.000000    -12.671366    0.000000    0.000000    -17.210072    -12.216989    -0.332454    -25.404444    -8.349842    29.269039    -79.571686    -4.134198    31.729954    -15.891899    -37.464054    25.865492    5.600198    2.560015    -0.257176    0.000000    0.000000    -1.054596    0.000000    0.000000    -2.109191    27.806566    1.549468    2.935083    55.692528    0.000000    -0.000000    27.846264    0.000000    -0.000000    43.264904    -0.684682    0.633802    73.613991    0.000000    -0.000000    43.271202    0.000000    -0.000000    58.647224    -3.450229    -0.991635    91.535454    0.000000    -0.000000    58.696136    0.000000    -0.000000    74.481682    -6.644127    -1.840103    110.000000    0.000000    -0.000000    74.588501    0.000000    -0.000000    9.743304    -19.301182    13.523405    -18.332876    52.470322    20.937546    0.093281    -30.520695    -0.238846    0.305519    1.271643    -0.340784    -4.573374    -21.855553    -1.542398    21.592485    50.038319    -21.701361    -6.110958    -29.229904    -2.092166    0.038582    0.024805    -0.066600    
1.249051    73.715904    121.967468    0.440719    -0.276318    -8.155664    -6.728929    1.778271    -4.598739    6.915510    8.459291    -2.074511    24.064270    -26.644957    2.297845    -13.616681    18.736496    3.507535    20.829643    -3.555346    -25.429949    -29.676170    76.542625    -63.721973    26.931286    43.246655    -25.772692    7.814845    -31.588282    -33.863934    -3.572108    8.296696    9.480788    -0.000000    0.000000    10.039485    -0.000000    0.000000    20.078968    34.718910    -3.552103    -5.109403    0.000000    0.000000    0.000000    0.000000    0.000000    0.000000    19.121490    -1.846468    -2.402255    -8.388085    0.000000    0.000000    -4.194043    0.000000    0.000000    3.470858    -0.932262    0.662216    -16.776169    0.000000    0.000000    -8.388085    0.000000    0.000000    -12.678437    -0.891334    3.955657    -25.418440    0.000000    0.000000    -12.709220    0.000000    0.000000    -17.751856    -12.756933    -0.949872    -25.551794    -8.315773    29.061771    -79.593719    -4.118076    31.792616    -15.839210    -37.426514    25.984619    5.610813    2.563975    -0.256220    0.000000    0.000000    -1.056453    0.000000    0.000000    -2.112905    27.824348    1.564944    2.962114    55.729626    0.000000    -0.000000    27.864815    0.000000    -0.000000    43.282017    -0.673055    0.650595    73.638855    0.000000    -0.000000    43.288177    0.000000    -0.000000    58.662949    -3.445004    -0.983732    91.548073    0.000000    -0.000000    58.711559    0.000000    -0.000000    74.495461    -6.647696    -1.839369    110.000000    0.000000    -0.000000    74.602295    0.000000    -0.000000    9.763332    -20.492973    13.864946    -18.934715    53.430504    21.256763    0.392477    -30.911636    -0.659122    0.318653    1.297993    -0.364864    -5.106792    -23.074551    -1.798264    22.464024    51.125542    -22.412441    -6.240846    -29.665833    -2.708401    0.047793    0.035773    -0.082686    
1.478547    73.335304    121.621193    0.704700    0.114350    -7.543412    -6.347481    2.455125    -4.446203    6.958228    7.835330    -2.000047    23.564011    -28.206097    2.356067    -14.419946    18.757568    3.491295    20.896851    -3.672722    -25.337349    -30.232956    76.897675    -63.553345    27.465939    43.460545    -25.914740    8.017822    -31.440844    -33.419842    -3.680662    8.335133    9.423745    -0.000000    0.000000    10.007736    -0.000000    0.000000    20.015472    35.108086    -3.466024    -4.915075    0.000000    0.000000    0.000000    0.000000    0.000000    0.000000    19.384047    -1.803037    -2.326577    -8.377033    0.000000    0.000000    -4.188518    0.000000    0.000000    3.610480    -0.904404    0.614287    -16.754066    0.000000    0.000000    -8.377033    0.000000    0.000000    -12.664388    -0.850889    3.781027    -25.384953    0.000000    0.000000    -12.692476    0.000000    0.000000    -18.278238    -13.231543    -1.537118    -25.689054    -8.277689    28.893772    -79.555046    -4.035803    31.809271    -15.799116    -37.407715    26.106941    5.616145    2.568416    -0.260556    0.000000    0.000000    -1.063555    0.000000    0.000000    -2.127110    27.842880    1.578198    2.984816    55.768005    0.000000    -0.000000    27.884003    0.000000    -0.000000    43.296459    -0.662364    0.665028    73.664566    0.000000    -0.000000    43.302502    0.000000    -0.000000    58.672733    -3.438855    -0.976794    91.561134    0.000000    -0.000000    58.721012    0.000000    -0.000000    74.499931    -6.648057    -1.838913    110.000000    0.000000    -0.000000    74.606735    0.000000    -0.000000    9.747558    -21.587292    14.274390    -19.470278    54.277283    21.543161    0.657251    -31.340733    -1.138310    0.331802    1.332516    -0.386143    -5.705660    -24.264177    -2.127156    23.344810    52.197231    -23.095936    -6.355353    -30.097427    -3.257219    0.059875    0.041812    -0.103468    
1.705343    72.964111    121.303772    0.988850    0.508561    -6.985502    -5.959995    2.984161    -4.269906    6.927582    7.294717    -1.913458    22.991064    -29.509579    2.330428    -15.105116    18.584494    3.413960    20.945169    -3.751850    -25.213896    -31.174484    77.189240    -62.965237    27.897106    43.710617    -25.958416    8.223568    -31.293940    -33.026817    -3.790374    8.379945    9.377121    -0.000000    0.000000    9.993113    -0.000000    0.000000    19.986225    35.606533    -3.409529    -4.747528    0.000000    0.000000    0.000000    0.000000    0.000000    0.000000    19.736477    -1.774558    -2.255276    -8.334634    0.000000    0.000000    -4.167316    0.000000    0.000000    3.819650    -0.883980    0.587733    -16.669268    0.000000    0.000000    -8.334631    0.000000    0.000000    -12.602117    -0.818379    3.655490    -25.256464    0.000000    0.000000    -12.628232    0.000000    0.000000    -18.775492    -13.637391    -2.070487    -25.798182    -8.249633    28.783693    -79.461304    -3.894485    31.794691    -15.750704    -37.392757    26.245283    5.613334    2.573534    -0.272888    0.000000    0.000000    -1.078752    0.000000    0.000000    -2.157503    27.858482    1.584057    2.993903    55.799759    0.000000    -0.000000    27.899879    0.000000    -0.000000    43.304829    -0.657146    0.671055    73.685852    0.000000    -0.000000    43.310814    0.000000    -0.000000    58.673634    -3.434857    -0.973898    91.571922    0.000000    -0.000000    58.721752    0.000000    -0.000000    74.492889    -6.646021    -1.839229    110.000000    0.000000    -0.000000    74.599686    0.000000    -0.000000    9.701430    -22.581091    14.764853    -19.933285    55.022923    21.745789    0.915577    -31.772118    -1.622920    0.343043    1.360245    -0.404931    -6.370745    -25.416500    -2.524540    24.225521    53.248325    -23.753471    -6.442884    -30.519743    -3.718522    0.073399    0.043376    -0.126534    
